<svg xmlns="http://www.w3.org/2000/svg" viewBox="0 0 64 64">
  <rect width="64" height="64" rx="14" fill="#0e1f30"/>
  <g fill="#fbfaf8" transform="translate(8.32 11.91) scale(0.3588)">
    <path d="M16 8 H29 V104 H16 Z"/>
    <path d="M16 8 H114.5 V21 H16 Z"/>
    <path d="M16 51.5 H63.5 V64.5 H16 Z"/>
    <path d="M53.5 58 a30.5 30.5 0 1 0 61 0 a30.5 30.5 0 1 0 -61 0 Z M66.5 58 a17.5 17.5 0 1 1 35 0 a17.5 17.5 0 1 1 -35 0 Z"/>
    <path d="M77.5 58 a6.5 6.5 0 1 0 13 0 a6.5 6.5 0 1 0 -13 0 Z" fill="#c6934a"/>
  </g>
</svg>
