<?xml version="1.0" encoding="UTF-8"?>
<svg xmlns="http://www.w3.org/2000/svg" viewBox="0 0 856 192">
<g stroke="#b9c2cf" stroke-width="1" fill="none"><line x1="0" y1="160" x2="856" y2="160"/></g><g transform="translate(16 16)"><path fill="#0e1f30" fill-rule="evenodd" d="M0 0H32V128H0ZM64 32H128V64H80L64 48ZM64 112L80 96H128V128H64Z"/></g><g fill="#0e1f30" fill-rule="evenodd"><path transform="translate(176 40)" d="M0 0H56V24H24V40H48V64H24V104H0Z"/><path transform="translate(256 40)" d="M0 0H56V24H24V40H48V64H24V80H56V104H0Z"/><path transform="translate(336 40)" d="M0 0H24V80H48V104H0Z"/><path transform="translate(408 40)" d="M0 0H48L72 24V80L48 104H0Z M24 24H40L48 32V72L40 80H24Z"/><path transform="translate(504 40)" d="M0 0H48L72 24V48L48 72H40L72 104H48L24 80V104H0Z M24 24H48L56 32V40L48 48H24Z"/><path transform="translate(592 40)" d="M24 0H48L72 24V80L48 104H24L0 80V24L24 0Z M32 24H40L48 32V72L40 80H32L24 72V32L32 24Z"/><path transform="translate(688 40)" d="M0 0H24L48 80V0H72V104H48L24 24V104H0Z"/><path transform="translate(784 40)" d="M0 0H56V24H24V40H48V64H24V80H56V104H0Z"/></g><g transform="translate(16 16)"><g fill="none" stroke="#d67d2e" stroke-width="1" opacity="0.85"><line x1="0" y1="32" x2="128" y2="32"/><line x1="0" y1="64" x2="128" y2="64"/><line x1="0" y1="96" x2="128" y2="96"/><line x1="32" y1="0" x2="32" y2="128"/><line x1="64" y1="0" x2="64" y2="128"/><line x1="80" y1="64" x2="64" y2="48"/><line x1="64" y1="112" x2="80" y2="96"/></g></g><g fill="none" stroke="#d67d2e" stroke-width="1" opacity="0.85"><line x1="0" y1="40" x2="856" y2="40"/><line x1="0" y1="144" x2="856" y2="144"/><line x1="176" y1="0" x2="176" y2="160"/><line x1="144" y1="0" x2="144" y2="160"/></g><text x="8" y="184" font-family="DejaVu Sans" font-size="11" fill="#7c8798">grid g=8u · module M=32u · mark 4M square, ink = void = M · 45° only non-right angle (chamfers M/2 on the shelves, 24u/8u on D/O/R) · word cap 96 / stem 24 = counter depth 24 · kerning 24, R-O 16 · mark→word clearance 32 (≥ 24 floor) · MICRO deletes the chamfers and nothing else</text>
</svg>
