<?xml version="1.0" encoding="UTF-8"?>
<svg xmlns="http://www.w3.org/2000/svg" viewBox="0 0 516 248">
<g transform="translate(190 -4)"><path fill="#000000" fill-rule="evenodd" d="M16 20L120 20L120 32L40 52L40 80L96 80L96 96L40 96L40 140L16 140Z"/></g><g fill="#000000" fill-rule="evenodd"><path transform="translate(16 160)" d="M0 0L44 0L44 12L12 24L12 40L36 40L36 52L12 52L12 72L0 72Z"/><path transform="translate(78 160)" d="M0 0L44 0L44 12L12 12L12 30L38 30L38 42L12 42L12 60L44 60L44 72L0 72Z"/><path transform="translate(140 160)" d="M0 0L12 0L12 60L40 60L40 72L0 72Z"/><path transform="translate(198 160)" d="M0 0L36 0L48 12L48 60L36 72L0 72ZM12 12L30 12L36 18L36 54L30 60L12 60Z"/><path transform="translate(264 160)" d="M0 0L32 0L44 12L44 24L34 36L44 72L30 72L20 36L12 36L12 72L0 72ZM12 12L32 12L32 24L12 24Z"/><path transform="translate(324 160)" d="M12 0L36 0L48 12L48 60L36 72L12 72L0 60L0 12ZM18 12L30 12L36 18L36 54L30 60L18 60L12 54L12 18Z"/><path transform="translate(390 160)" d="M0 0L12 0L36 44L36 0L48 0L48 72L36 72L12 28L12 72L0 72Z"/><path transform="translate(456 160)" d="M0 0L44 0L44 12L12 12L12 30L38 30L38 42L12 42L12 60L44 60L44 72L0 72Z"/></g>
</svg>
