<!-- FEL DRONE — GENERATED by scripts/brand-gen.mjs — do NOT hand-edit brand SVGs.
     Run `npm run brand:gen` after changing geometry. -->
<svg xmlns="http://www.w3.org/2000/svg" viewBox="0 0 128 128"><style>:root{--ink:#0e1f30}svg{background:#fbfaf8}</style><g fill="var(--ink)" fill-rule="nonzero"><path d="M0 0H32V128H0ZM0 16H96V48H0ZM0 80H72V112H0ZM64 32A32 32 0 0 1 128 32A32 32 0 0 1 64 32ZM76 32A20 20 0 0 0 116 32A20 20 0 0 0 76 32ZM84 32A12 12 0 0 1 108 32A12 12 0 0 1 84 32ZM48 96A24 24 0 0 1 96 96A24 24 0 0 1 48 96ZM60 96A12 12 0 0 0 84 96A12 12 0 0 0 60 96Z"/></g></svg>
